# xmcd CD database file
#
# Track frame offsets:
#	150
#	6425
#	112674
#	194992
#	306216
#
# Disc length: 4138 seconds
#
# Revision: 1
# Processed by: cddbd v1.5.1PL0 Copyright (c) Steve Scherf et al.
# Submitted via: CDex 1.50
#
DISCID=3e102805
DTITLE=Donna Henes - Reverence to Her: Mythology, the Matriarchy and Me
DYEAR=1998
DGENRE=New Age
TTITLE0=Introduction
TTITLE1=Terre Mater
TTITLE2=Valentines and Vulvas
TTITLE3=Mother's Milk
TTITLE4=Conclusion
EXTD=YEAR: 1998
EXTT0=
EXTT1=
EXTT2=
EXTT3=
EXTT4=
PLAYORDER=
